# xmcd
#
# Track frame offsets: 
#        150
#        19223
#        45242
#        58946
#        74594
#        89570
#        96873
#        130476
#        148371
#        168836
#        186833
#        208014
#        226994
#        238922
#
# Disc length: 3583 seconds
#
# Revision: 0
# Processed by: cddbd v1.5.2PL0 Copyright (c) Steve Scherf et al.
# Submitted via: ExactAudioCopyFreeDBPlugin 1.0
#
DISCID=d40dfd0e
DTITLE=Micah P. Hinson - Micah P. Hinson Presents The Holy Strangers
DYEAR=2017
DGENRE=Country
TTITLE0=The Temptation
TTITLE1=The Great Void
TTITLE2=Lover's Lane
TTITLE3=The Years Tire On
TTITLE4=Oh, Spaceman
TTITLE5=The Holy Strangers (Reprise)
TTITLE6=Micah Book One
TTITLE7=The War (Volume One)
TTITLE8=The Darling I Fear
TTITLE9=The Awakening
TTITLE10=The Last Song
TTITLE11=The Memorial Day Massacre
TTITLE12=The Lady From Abilene
TTITLE13=Come By Here
EXTD=
EXTT0=
EXTT1=
EXTT2=
EXTT3=
EXTT4=
EXTT5=
EXTT6=
EXTT7=
EXTT8=
EXTT9=
EXTT10=
EXTT11=
EXTT12=
EXTT13=
PLAYORDER=
